<?xml version="1.0" encoding="UTF-8"?>
<!DOCTYPE svg PUBLIC "-//W3C//DTD SVG 1.1//EN" "http://www.w3.org/Graphics/SVG/1.1/DTD/svg11.dtd">
<!-- Creator: CorelDRAW -->
<svg xmlns="http://www.w3.org/2000/svg" xml:space="preserve" width="6.82666in" height="6.82666in" style="shape-rendering:geometricPrecision; text-rendering:geometricPrecision; image-rendering:optimizeQuality; fill-rule:evenodd; clip-rule:evenodd"
viewBox="0 0 6.82666 6.82666"
 xmlns:xlink="http://www.w3.org/1999/xlink">
 <defs>
  <style type="text/css">
   <![CDATA[
    .fil0 {fill:none}
    .fil1 {fill:#424242;fill-rule:nonzero}
   ]]>
  </style>
 </defs>
 <g id="Layer_x0020_1">
  <metadata id="CorelCorpID_0Corel-Layer"/>
  <rect class="fil0" width="6.82666" height="6.82666"/>
  <rect class="fil0" x="0.853331" y="0.853331" width="5.12" height="5.12"/>
  <path class="fil1" d="M2.30469 0.853331l2.23769 0c0.0642087,0 0.122508,0.0261929 0.164705,0.0683898 0.0421929,0.0421969 0.0683898,0.100496 0.0683898,0.164705l0 2.41773c0,0.0642087 -0.0261969,0.122508 -0.0683898,0.164705 -0.0421969,0.0421929 -0.100496,0.0683898 -0.164705,0.0683898l-2.23769 0c-0.0642047,0 -0.122508,-0.0261969 -0.164701,-0.0683898 -0.0421929,-0.0421969 -0.0683898,-0.100496 -0.0683898,-0.164705l0 -2.41773c0,-0.0642087 0.0261969,-0.122512 0.0683858,-0.164705 0.0421969,-0.0421969 0.1005,-0.0683898 0.164705,-0.0683898z"/>
  <path class="fil1" d="M2.30469 3.86263l2.23769 0c0.0642087,0 0.122508,0.0261969 0.164705,0.0683898 0.0421929,0.0421969 0.0683898,0.100508 0.0683898,0.164705l0 0.300079c0,0.0642008 -0.0262008,0.122504 -0.0683937,0.164697 -0.0421969,0.0421969 -0.100496,0.0683937 -0.164701,0.0683937l-2.23769 0c-0.0642047,0 -0.122504,-0.0261929 -0.164701,-0.0683898 -0.0421929,-0.0421929 -0.0683898,-0.100496 -0.0683898,-0.164701l0 -0.300079c0,-0.0642047 0.0261969,-0.122508 0.0683898,-0.164705 0.0421929,-0.0421929 0.100492,-0.0683898 0.164701,-0.0683898z"/>
  <path class="fil1" d="M1.95317 4.40599c-0.105465,0 -0.201276,-0.0430748 -0.270665,-0.112465 -0.0693898,-0.0693898 -0.112465,-0.165201 -0.112465,-0.270665l0 -0.611134 0.208984 0 0 0.611134c0,0.0477835 0.0196299,0.0912992 0.0512362,0.122909 0.0316102,0.0316102 0.0751299,0.0512362 0.122909,0.0512362l0 0.208984z"/>
  <polygon class="fil1" points="1.41836,3.30536 1.93009,3.30536 1.93009,3.51434 1.41836,3.51434 "/>
  <path class="fil1" d="M4.87349 4.197c0.0477835,0 0.0913031,-0.019626 0.122913,-0.0512362 0.0316063,-0.0316102 0.0512362,-0.075126 0.0512362,-0.122909l0 -0.611134 0.208984 0 0 0.611134c0,0.105465 -0.0430748,0.201276 -0.112465,0.270665 -0.0693898,0.0693898 -0.165201,0.112465 -0.270669,0.112465l0 -0.208984z"/>
  <polygon class="fil1" points="5.4083,3.51434 4.89658,3.51434 4.89658,3.30536 5.4083,3.30536 "/>
  <polygon class="fil1" points="3.52802,4.63586 3.52802,5.63896 3.31904,5.63896 3.31904,4.63586 "/>
  <path class="fil1" d="M2.40596 5.97232l0 -0.20476c0,-0.0573583 0.0178425,-0.111008 0.0465945,-0.151232 0.0360984,-0.0505079 0.0889528,-0.0818622 0.149815,-0.0818622l1.59945 0c0.0608701,0 0.113717,0.0313622 0.149815,0.0818622 0.028748,0.0402283 0.0465984,0.093878 0.0465984,0.151232l0 0.205768 -0.208984 0 0 -0.205768c0,-0.00964173 -0.00148031,-0.0178701 -0.00401969,-0.0241102l-1.56627 0c-0.00253543,0.00623622 -0.00401575,0.0144685 -0.00401575,0.0241102l0 0.20476 -0.208984 0z"/>
 </g>
</svg>
