<?xml version="1.0" encoding="UTF-8"?>
<!DOCTYPE svg PUBLIC "-//W3C//DTD SVG 1.1//EN" "http://www.w3.org/Graphics/SVG/1.1/DTD/svg11.dtd">
<!-- Creator: CorelDRAW -->
<svg xmlns="http://www.w3.org/2000/svg" xml:space="preserve" width="2048px" height="2048px" style="shape-rendering:geometricPrecision; text-rendering:geometricPrecision; image-rendering:optimizeQuality; fill-rule:evenodd; clip-rule:evenodd"
viewBox="0 0 2048 2048"
 xmlns:xlink="http://www.w3.org/1999/xlink">
 <defs>
  <style type="text/css">
   <![CDATA[
    .fil1 {fill:none}
    .fil0 {fill:#424242;fill-rule:nonzero}
   ]]>
  </style>
 </defs>
 <g id="Layer_x0020_1">
  <metadata id="CorelCorpID_0Corel-Layer"/>
  <path class="fil0" d="M728.792 1168.65l67.6465 0 189.165 238.593c0.376772,0.579922 0.79252,1.14213 1.25315,1.68189l0.242126 0.276378c8.15434,9.94843 19.5213,15.7949 31.4173,17.2205 12.1701,1.4563 24.913,-1.73858 35.3303,-9.92954 1.7941,-1.40906 3.51496,-2.99173 5.15552,-4.72323 1.58977,-1.67835 3.01181,-3.39922 4.25906,-5.14725l0.230315 -0.287008 0.00590552 0.00472441 0.056693 -0.0826772 190.81 -237.607 64.8461 0c111.379,0 212.612,45.5422 285.983,118.913 73.3713,73.3713 118.913,174.605 118.913,285.983l0 186.449c0,17.6728 -14.328,32.0008 -32.0008,32.0008l-228.362 0 0 -272.001c0,-8.83583 -7.16457,-16.0004 -16.0004,-16.0004 -8.83583,0 -16.0004,7.16457 -16.0004,16.0004l0 272.001 -815.486 0 0 -272.001c0,-8.83583 -7.16457,-16.0004 -16.0004,-16.0004 -8.83583,0 -16.0004,7.16457 -16.0004,16.0004l0 272.001 -228.36 0c-17.6728,0 -32.0008,-14.328 -32.0008,-32.0008l0 -186.449c0,-111.378 45.5422,-212.612 118.913,-285.983 73.3713,-73.3713 174.604,-118.913 285.983,-118.913zm108.404 0l14.9681 0 0 -129.748c0,-17.6728 14.328,-32.0008 32.0008,-32.0008 4.97481,0 9.68505,1.13504 13.8851,3.16181 19.4138,7.33465 39.6237,13.0252 60.4607,16.8921 20.8795,3.87638 42.7607,5.90434 65.491,5.90434 22.7303,0 44.6115,-2.02914 65.4886,-5.90434 21.691,-4.0252 42.7052,-10.0276 62.8453,-17.8016l-0.0236221 -0.103937c16.487,-6.36378 35.0138,1.84252 41.3776,18.3295 1.5378,3.98268 2.22166,8.08465 2.14725,12.1063l0 129.164 17.5914 0 -174.744 217.601c-0.490158,0.529134 -0.950788,1.09606 -1.37599,1.70197l0.0248032 0.0177165c-0.477166,0.677953 -0.962599,1.28268 -1.45394,1.8 -0.480709,0.507874 -1.07599,1.04291 -1.78228,1.59803 -3.47244,2.72953 -7.74095,3.79252 -11.8311,3.30355 -3.74882,-0.448819 -7.34528,-2.22284 -10.0228,-5.22756 -0.201969,-0.290551 -0.413386,-0.578741 -0.636615,-0.861024l-12.5374 9.94017 12.4996 -9.9378 -174.372 -219.936z"/>
  <path class="fil0" d="M1024 255.998c116.095,0 221.204,47.0599 297.29,123.144 76.0843,76.0855 123.144,181.194 123.144,297.29 0,116.095 -47.0599,221.204 -123.144,297.288 -76.0843,76.0843 -181.194,123.145 -297.29,123.145 -116.095,0 -221.204,-47.0599 -297.288,-123.145 -76.0843,-76.0843 -123.144,-181.193 -123.144,-297.288 0,-116.095 47.0599,-221.204 123.144,-297.288 76.0843,-76.0855 181.193,-123.145 297.288,-123.145zm84.4548 259.842c-224.667,105.859 -377.233,121.056 -439.002,122.095 -1.24606,12.1217 -1.88386,24.4229 -1.88386,36.874 0,98.4296 39.8941,187.539 104.393,252.038 64.4989,64.5 153.608,104.394 252.038,104.394 98.4296,0 187.54,-39.8953 252.039,-104.394 64.4989,-64.4989 104.393,-153.608 104.393,-252.038 0,-12.9921 -0.694489,-25.8225 -2.0504,-38.4544 -187.441,-26.9469 -251.081,-78.5953 -269.927,-120.515z"/>
 </g>
 <rect class="fil1" width="2048" height="2048"/>
</svg>
